<?xml version="1.0" encoding="utf-8"?>
<svg xmlns="http://www.w3.org/2000/svg" viewBox="186.37 245.971 33.8382 21.979" width="33.8382px" height="21.979px">
  <path d="M 216.849 261.142 C 216.849 265.983 210.941 267.95 203.605 267.95 C 196.269 267.95 190.275 265.983 190.275 261.142 C 190.275 256.301 196.226 252.383 203.562 252.383 C 210.898 252.383 216.849 256.309 216.849 261.142 Z" fill="#24A95A" style="stroke-width: 1;" transform="matrix(0.9999999999999999, 0, 0, 0.9999999999999999, 0, 0)"/>
  <path d="M 215.501 250.59 C 215.501 248.041 213.419 245.971 210.857 245.971 C 209.524 245.971 208.323 246.531 207.476 247.424 C 207.345 247.562 207.154 247.629 206.967 247.592 C 205.894 247.375 204.76 247.254 203.59 247.254 C 202.419 247.254 201.285 247.368 200.213 247.59 C 200.026 247.628 199.833 247.562 199.701 247.424 C 198.848 246.531 197.648 245.971 196.323 245.971 C 193.76 245.971 191.679 248.041 191.679 250.59 C 191.679 251.333 191.854 252.029 192.164 252.649 C 192.238 252.797 192.246 252.971 192.182 253.124 C 191.881 253.84 191.722 254.596 191.722 255.379 C 191.722 259.87 197.036 263.505 203.59 263.505 C 210.143 263.505 215.458 259.87 215.458 255.379 C 215.458 254.596 215.298 253.84 214.998 253.124 C 214.933 252.971 214.941 252.797 215.015 252.649 C 215.325 252.029 215.501 251.333 215.501 250.59 Z" fill="#32DA6D" style="stroke-width: 1;" transform="matrix(0.9999999999999999, 0, 0, 0.9999999999999999, 0, 0)"/>
  <path d="M 195.943 253.152 C 197.511 253.152 198.781 251.888 198.781 250.329 C 198.781 248.771 197.511 247.507 195.943 247.507 C 194.376 247.507 193.105 248.771 193.105 250.329 C 193.105 251.888 194.376 253.152 195.943 253.152 Z" fill="white" style="stroke-width: 1;" transform="matrix(0.9999999999999999, 0, 0, 0.9999999999999999, 0, 0)"/>
  <path d="M 211.085 253.152 C 212.652 253.152 213.923 251.888 213.923 250.329 C 213.923 248.77 212.652 247.507 211.085 247.507 C 209.518 247.507 208.247 248.77 208.247 250.329 C 208.247 251.888 209.518 253.152 211.085 253.152 Z" fill="white" style="stroke-width: 1;" transform="matrix(0.9999999999999999, 0, 0, 0.9999999999999999, 0, 0)"/>
  <path d="M 194.438 267.601 C 195.048 267.601 195.53 267.071 195.461 266.472 C 195.212 264.351 194.154 259.758 189.501 256.995 C 184.401 253.966 186.828 262.02 187.842 264.955 C 188.047 265.548 187.809 266.207 187.265 266.52 L 186.93 266.712 C 186.5 266.96 186.681 267.601 187.171 267.601 L 194.438 267.601 Z" fill="#32DA6D" style="stroke-width: 1;" transform="matrix(0.9999999999999999, 0, 0, 0.9999999999999999, 0, 0)"/>
  <path d="M 212.921 267.601 C 212.37 267.601 211.94 267.071 212.001 266.472 C 212.216 264.36 213.179 259.758 217.376 256.996 C 222.023 253.943 219.761 262.146 218.858 265.022 C 218.681 265.586 218.899 266.2 219.398 266.517 L 219.706 266.712 C 220.093 266.96 219.93 267.601 219.491 267.601 L 212.921 267.601 Z" fill="#32DA6D" style="stroke-width: 1;" transform="matrix(0.9999999999999999, 0, 0, 0.9999999999999999, 0, 0)"/>
  <path d="M 195.947 252.017 C 196.882 252.017 197.64 251.259 197.64 250.324 C 197.64 249.389 196.882 248.631 195.947 248.631 C 195.012 248.631 194.254 249.389 194.254 250.324 C 194.254 251.259 195.012 252.017 195.947 252.017 Z" fill="#092511" style="stroke-width: 1;" transform="matrix(0.9999999999999999, 0, 0, 0.9999999999999999, 0, 0)"/>
  <path d="M 211.087 252.017 C 212.023 252.017 212.781 251.259 212.781 250.324 C 212.781 249.389 212.023 248.631 211.087 248.631 C 210.152 248.631 209.394 249.389 209.394 250.324 C 209.394 251.259 210.152 252.017 211.087 252.017 Z" fill="#092511" style="stroke-width: 1;" transform="matrix(0.9999999999999999, 0, 0, 0.9999999999999999, 0, 0)"/>
  <path d="M 207.347 256.874 C 207.767 256.911 208.084 257.283 207.979 257.691 C 207.893 258.02 207.771 258.34 207.613 258.644 C 207.338 259.174 206.962 259.645 206.505 260.029 C 206.048 260.414 205.52 260.704 204.951 260.885 C 204.381 261.065 203.782 261.132 203.187 261.08 C 202.592 261.029 202.013 260.861 201.483 260.586 C 200.953 260.311 200.483 259.935 200.098 259.478 C 199.714 259.021 199.423 258.493 199.242 257.924 C 199.113 257.516 199.043 257.094 199.032 256.668 C 199.024 256.388 199.274 256.18 199.553 256.204 L 203.577 256.55 L 207.347 256.874 Z" fill="#092511" style="stroke-width: 1;" transform="matrix(0.9999999999999999, 0, 0, 0.9999999999999999, 0, 0)"/>
</svg>